<svg width="100" height="32" viewBox="0 0 100 32" fill="none" xmlns="http://www.w3.org/2000/svg">
<path d="M43.6904 0H57.04L60.2229 16.103H60.3165L72.9733 0H85.6956L77.1205 32H66.7853L70.9699 16.3934H70.8763L59.5395 32H53.286L49.8503 15.6628H49.7567L45.3193 32H35.1152L43.6904 0Z" fill="#121C3E"/>
<path d="M89.3467 0H100L91.4249 32H80.7715L89.3467 0Z" fill="#121C3E"/>
<path d="M43.0069 0H29.6667L3.07995 20.4965L0 32H10.1386L12.4977 23.1663L17.5061 19.6721L23.9843 32H34.9654L25.2294 13.8454L43.0069 0Z" fill="#121C3E"/>
<path d="M26.1001 0H8.57527L4.00684 17.0211L26.1001 0Z" fill="#B5232B"/>
</svg>
