<svg width="34" height="34" fill="none" xmlns="http://www.w3.org/2000/svg"><path d="M11.525 25v-3.44a7.408 7.408 0 01-1.862-2.43A6.719 6.719 0 019 16.2c0-2 .736-3.7 2.21-5.1C12.681 9.7 14.47 9 16.573 9c1.754 0 3.307.49 4.661 1.47 1.353.98 2.233 2.257 2.64 3.83l1.094 4.1a.73.73 0 01-.147.69.825.825 0 01-.674.31h-1.683v2.4c0 .44-.164.817-.494 1.13-.33.314-.726.47-1.189.47H19.1V25h-1.683v-3.2h3.366v-4h2.273l-.8-3.1c-.323-1.213-1.01-2.2-2.062-2.96-1.052-.76-2.258-1.14-3.619-1.14-1.627 0-3.015.54-4.166 1.62-1.15 1.08-1.725 2.393-1.725 3.94 0 .8.172 1.56.516 2.28a6 6 0 001.462 1.92l.547.48V25h-1.683zm5.05-4.8a.837.837 0 00.6-.23.754.754 0 00.24-.57.757.757 0 00-.24-.57.839.839 0 00-.6-.23.836.836 0 00-.6.23.756.756 0 00-.242.57c0 .227.08.417.242.57.161.153.36.23.6.23zm-.632-2.56h1.284c0-.333.045-.604.137-.81.09-.207.276-.457.557-.75.252-.267.498-.537.736-.81.239-.274.358-.63.358-1.07 0-.56-.228-1.033-.684-1.42-.456-.387-1.02-.58-1.694-.58a2.67 2.67 0 00-1.525.46 2.44 2.44 0 00-.957 1.2l1.157.46c.098-.293.27-.53.516-.71.245-.18.515-.27.81-.27.308 0 .564.08.768.24.203.16.304.367.304.62 0 .28-.087.53-.262.75a6.72 6.72 0 01-.621.67c-.28.28-.498.56-.653.84-.154.28-.23.673-.23 1.18z" fill="#253981"/></svg>