<svg width="20" height="16" fill="none" xmlns="http://www.w3.org/2000/svg"><path d="M0 15.61v-2.732c0-.537.142-1.04.425-1.512.283-.472.675-.83 1.175-1.073.85-.423 1.808-.78 2.875-1.073C5.542 8.927 6.717 8.78 8 8.78c.5 0 .988.025 1.463.074.475.048.937.122 1.387.22L9.1 10.78a3.08 3.08 0 00-.538-.05H8c-1.183 0-2.246.139-3.188.415-.941.277-1.712.578-2.312.903a.96.96 0 00-.362.341.898.898 0 00-.138.488v.78h6.25l2 1.952H0zm13.55.39l-3.45-3.366 1.4-1.366 2.05 2 5.05-4.927L20 9.707 13.55 16zM8 7.805c-1.1 0-2.042-.382-2.825-1.146C4.392 5.894 4 4.976 4 3.902c0-1.073.392-1.991 1.175-2.756C5.958.382 6.9 0 8 0s2.042.382 2.825 1.146C11.608 1.911 12 2.83 12 3.902c0 1.074-.392 1.992-1.175 2.757C10.042 7.423 9.1 7.805 8 7.805zm0-1.951c.55 0 1.021-.192 1.413-.574.391-.382.587-.841.587-1.378 0-.536-.196-.995-.587-1.377A1.951 1.951 0 008 1.95c-.55 0-1.02.191-1.412.574A1.854 1.854 0 006 3.902c0 .537.196.996.588 1.378A1.95 1.95 0 008 5.854z" fill="#7E8397"/></svg>