<svg width="24" height="58" fill="none" xmlns="http://www.w3.org/2000/svg"><path d="M17.734 6.275a.906.906 0 00-1.284 0L12 10.717l-4.45-4.45a.906.906 0 10-1.284 1.282L10.716 12l-4.45 4.45a.906.906 0 101.283 1.284L12 13.284l4.45 4.45a.906.906 0 101.284-1.284L13.284 12l4.45-4.45a.912.912 0 000-1.275z" fill="#D2D2D1"/><path d="M17.734 40.275a.906.906 0 00-1.284 0L12 44.717l-4.45-4.45a.906.906 0 10-1.284 1.282L10.716 46l-4.45 4.45a.906.906 0 101.283 1.284L12 47.284l4.45 4.45a.906.906 0 101.284-1.284L13.284 46l4.45-4.45a.912.912 0 000-1.275z" fill="#FF6859"/></svg>